<svg width="1024" height="1024" viewBox="0 0 1024 1024" fill="none" xmlns="http://www.w3.org/2000/svg">
<g clip-path="url(#clip0_7607_218)">
<path fill-rule="evenodd" clip-rule="evenodd" d="M147.265 41.6511C173.848 15.0681 209.902 0.134033 247.496 0.134033H300.37C320.252 0.134033 336.37 16.2518 336.37 36.134C336.37 56.0163 320.252 72.134 300.37 72.134H247.496C228.998 72.134 211.257 79.4825 198.177 92.5627C185.096 105.643 177.748 123.384 177.748 141.882V406.252C177.748 443.846 162.814 479.9 136.231 506.483C134.332 508.382 132.385 510.221 130.392 512C132.385 513.779 134.332 515.618 136.231 517.517C162.814 544.1 177.748 580.154 177.748 617.748V882.118C177.748 920.397 209.217 951.866 247.496 951.866H300.37C320.252 951.866 336.37 967.984 336.37 987.866C336.37 1007.75 320.252 1023.87 300.37 1023.87H247.496C169.452 1023.87 105.748 960.162 105.748 882.118V617.748C105.748 599.25 98.3996 581.509 85.3193 568.429C72.239 555.349 54.4983 548 36 548C16.1177 548 0 531.882 0 512C0 492.118 16.1177 476 36 476C54.4983 476 72.239 468.652 85.3193 455.571C98.3996 442.491 105.748 424.75 105.748 406.252V141.882C105.748 104.288 120.682 68.234 147.265 41.6511Z" fill="#FAFAFA"/>
<path fill-rule="evenodd" clip-rule="evenodd" d="M687.626 36.1272C687.626 16.2449 703.744 0.127197 723.626 0.127197H776.501C814.095 0.127197 850.15 15.0615 876.733 41.6447C903.316 68.2278 918.25 104.282 918.25 141.877V406.251C918.25 424.749 925.599 442.49 938.679 455.571C951.76 468.651 969.501 476 988 476C1007.88 476 1024 492.118 1024 512C1024 531.882 1007.88 548 988 548C949.72 548 918.25 579.47 918.25 617.75V882.123C918.25 919.718 903.316 955.772 876.733 982.355C850.15 1008.94 814.095 1023.87 776.501 1023.87H723.626C703.744 1023.87 687.626 1007.76 687.626 987.873C687.626 967.991 703.744 951.873 723.626 951.873H776.501C794.999 951.873 812.741 944.524 825.821 931.444C838.902 918.363 846.25 900.622 846.25 882.123V617.75C846.25 575.847 864.614 538.079 893.701 512.084C891.676 510.279 889.697 508.411 887.768 506.483C861.185 479.899 846.25 443.845 846.25 406.251V141.877C846.25 123.378 838.902 105.637 825.821 92.5564C812.741 79.4758 794.999 72.1272 776.501 72.1272H723.626C703.744 72.1272 687.626 56.0094 687.626 36.1272Z" fill="#FAFAFA"/>
</g>
<defs>
<clipPath id="clip0_7607_218">
<rect width="1024" height="1024" fill="white"/>
</clipPath>
</defs>
</svg>
